<mxfile host="app.diagrams.net" modified="2020-12-12T07:09:52.867Z" agent="5.0 (Macintosh; Intel Mac OS X 10_15_7) AppleWebKit/537.36 (KHTML, like Gecko) Chrome/87.0.4280.88 Safari/537.36" etag="1nCEAK-xC3yvkPHCK7HF" version="13.10.6" type="github">
  <diagram id="CvD_rMCfCDF0lOoAK6mH" name="Page-1">
    <mxGraphModel dx="1298" dy="1927" grid="1" gridSize="10" guides="1" tooltips="1" connect="1" arrows="1" fold="1" page="1" pageScale="1" pageWidth="827" pageHeight="1169" math="0" shadow="0">
      <root>
        <mxCell id="0" />
        <mxCell id="1" parent="0" />
        <mxCell id="eP9rrzpeA8IsXEVt9bxe-16" style="edgeStyle=orthogonalEdgeStyle;rounded=0;orthogonalLoop=1;jettySize=auto;html=1;exitX=0.25;exitY=1;exitDx=0;exitDy=0;" edge="1" parent="1" source="eP9rrzpeA8IsXEVt9bxe-14" target="eP9rrzpeA8IsXEVt9bxe-4">
          <mxGeometry relative="1" as="geometry" />
        </mxCell>
        <mxCell id="eP9rrzpeA8IsXEVt9bxe-17" value="操作" style="edgeLabel;html=1;align=center;verticalAlign=middle;resizable=0;points=[];" vertex="1" connectable="0" parent="eP9rrzpeA8IsXEVt9bxe-16">
          <mxGeometry x="-0.1345" y="3" relative="1" as="geometry">
            <mxPoint as="offset" />
          </mxGeometry>
        </mxCell>
        <mxCell id="eP9rrzpeA8IsXEVt9bxe-14" value="" style="rounded=0;whiteSpace=wrap;html=1;shadow=0;" vertex="1" parent="1">
          <mxGeometry x="20" y="95" width="470" height="350" as="geometry" />
        </mxCell>
        <mxCell id="eP9rrzpeA8IsXEVt9bxe-10" style="edgeStyle=orthogonalEdgeStyle;rounded=0;orthogonalLoop=1;jettySize=auto;html=1;entryX=0;entryY=0.25;entryDx=0;entryDy=0;" edge="1" parent="1" source="eP9rrzpeA8IsXEVt9bxe-2" target="eP9rrzpeA8IsXEVt9bxe-3">
          <mxGeometry relative="1" as="geometry" />
        </mxCell>
        <mxCell id="eP9rrzpeA8IsXEVt9bxe-2" value="inventory&lt;br&gt;中央库存&lt;br&gt;仓1" style="rounded=1;whiteSpace=wrap;html=1;" vertex="1" parent="1">
          <mxGeometry x="70" y="150" width="120" height="60" as="geometry" />
        </mxCell>
        <mxCell id="eP9rrzpeA8IsXEVt9bxe-3" value="inventory_agg_sku&lt;br&gt;中央库存聚合" style="rounded=1;whiteSpace=wrap;html=1;" vertex="1" parent="1">
          <mxGeometry x="330" y="240" width="120" height="60" as="geometry" />
        </mxCell>
        <mxCell id="eP9rrzpeA8IsXEVt9bxe-4" value="inventory_flow&lt;br&gt;中央库存实物流水" style="rounded=1;whiteSpace=wrap;html=1;" vertex="1" parent="1">
          <mxGeometry x="77" y="530" width="120" height="60" as="geometry" />
        </mxCell>
        <mxCell id="eP9rrzpeA8IsXEVt9bxe-21" style="edgeStyle=orthogonalEdgeStyle;rounded=0;orthogonalLoop=1;jettySize=auto;html=1;exitX=0.5;exitY=1;exitDx=0;exitDy=0;entryX=0.25;entryY=0;entryDx=0;entryDy=0;" edge="1" parent="1" source="eP9rrzpeA8IsXEVt9bxe-5" target="eP9rrzpeA8IsXEVt9bxe-14">
          <mxGeometry relative="1" as="geometry" />
        </mxCell>
        <mxCell id="eP9rrzpeA8IsXEVt9bxe-22" value="" style="edgeStyle=orthogonalEdgeStyle;rounded=0;orthogonalLoop=1;jettySize=auto;html=1;" edge="1" parent="1" source="eP9rrzpeA8IsXEVt9bxe-5" target="eP9rrzpeA8IsXEVt9bxe-6">
          <mxGeometry relative="1" as="geometry" />
        </mxCell>
        <mxCell id="eP9rrzpeA8IsXEVt9bxe-23" value="详情" style="edgeLabel;html=1;align=center;verticalAlign=middle;resizable=0;points=[];" vertex="1" connectable="0" parent="eP9rrzpeA8IsXEVt9bxe-22">
          <mxGeometry x="-0.1429" y="1" relative="1" as="geometry">
            <mxPoint as="offset" />
          </mxGeometry>
        </mxCell>
        <mxCell id="eP9rrzpeA8IsXEVt9bxe-5" value="inventory_order" style="rounded=1;whiteSpace=wrap;html=1;" vertex="1" parent="1">
          <mxGeometry x="77" y="-30" width="120" height="60" as="geometry" />
        </mxCell>
        <mxCell id="eP9rrzpeA8IsXEVt9bxe-6" value="inventory_order_detail" style="rounded=1;whiteSpace=wrap;html=1;" vertex="1" parent="1">
          <mxGeometry x="274" y="-30" width="140" height="60" as="geometry" />
        </mxCell>
        <mxCell id="eP9rrzpeA8IsXEVt9bxe-8" value="inventory&lt;br&gt;中央库存&lt;br&gt;仓2" style="rounded=1;whiteSpace=wrap;html=1;" vertex="1" parent="1">
          <mxGeometry x="70" y="240" width="120" height="60" as="geometry" />
        </mxCell>
        <mxCell id="eP9rrzpeA8IsXEVt9bxe-12" style="edgeStyle=orthogonalEdgeStyle;rounded=0;orthogonalLoop=1;jettySize=auto;html=1;exitX=1;exitY=0.5;exitDx=0;exitDy=0;entryX=0;entryY=0.75;entryDx=0;entryDy=0;" edge="1" parent="1" source="eP9rrzpeA8IsXEVt9bxe-9" target="eP9rrzpeA8IsXEVt9bxe-3">
          <mxGeometry relative="1" as="geometry">
            <mxPoint x="360" y="270" as="targetPoint" />
          </mxGeometry>
        </mxCell>
        <mxCell id="eP9rrzpeA8IsXEVt9bxe-9" value="inventory&lt;br&gt;中央库存&lt;br&gt;仓3" style="rounded=1;whiteSpace=wrap;html=1;" vertex="1" parent="1">
          <mxGeometry x="70" y="320" width="120" height="60" as="geometry" />
        </mxCell>
        <mxCell id="eP9rrzpeA8IsXEVt9bxe-11" style="edgeStyle=orthogonalEdgeStyle;rounded=0;orthogonalLoop=1;jettySize=auto;html=1;exitX=1;exitY=0.5;exitDx=0;exitDy=0;entryX=0;entryY=0.5;entryDx=0;entryDy=0;" edge="1" parent="1" source="eP9rrzpeA8IsXEVt9bxe-8" target="eP9rrzpeA8IsXEVt9bxe-3">
          <mxGeometry relative="1" as="geometry">
            <mxPoint x="330" y="270" as="targetPoint" />
          </mxGeometry>
        </mxCell>
        <mxCell id="eP9rrzpeA8IsXEVt9bxe-13" value="聚合" style="text;html=1;strokeColor=#82b366;fillColor=#d5e8d4;align=center;verticalAlign=middle;whiteSpace=wrap;rounded=0;shadow=0;" vertex="1" parent="1">
          <mxGeometry x="280" y="260" width="40" height="20" as="geometry" />
        </mxCell>
        <mxCell id="eP9rrzpeA8IsXEVt9bxe-19" value="" style="endArrow=classic;html=1;" edge="1" parent="1" target="eP9rrzpeA8IsXEVt9bxe-5">
          <mxGeometry width="50" height="50" relative="1" as="geometry">
            <mxPoint x="137" y="-150" as="sourcePoint" />
            <mxPoint x="127" y="-190" as="targetPoint" />
          </mxGeometry>
        </mxCell>
        <mxCell id="eP9rrzpeA8IsXEVt9bxe-20" value="库存单" style="edgeLabel;html=1;align=center;verticalAlign=middle;resizable=0;points=[];" vertex="1" connectable="0" parent="eP9rrzpeA8IsXEVt9bxe-19">
          <mxGeometry x="-0.1833" y="1" relative="1" as="geometry">
            <mxPoint as="offset" />
          </mxGeometry>
        </mxCell>
        <mxCell id="eP9rrzpeA8IsXEVt9bxe-32" style="edgeStyle=orthogonalEdgeStyle;rounded=0;orthogonalLoop=1;jettySize=auto;html=1;exitX=0.5;exitY=0;exitDx=0;exitDy=0;entryX=0;entryY=0.5;entryDx=0;entryDy=0;" edge="1" parent="1" source="eP9rrzpeA8IsXEVt9bxe-24" target="eP9rrzpeA8IsXEVt9bxe-26">
          <mxGeometry relative="1" as="geometry" />
        </mxCell>
        <mxCell id="eP9rrzpeA8IsXEVt9bxe-33" value="映射" style="edgeLabel;html=1;align=center;verticalAlign=middle;resizable=0;points=[];" vertex="1" connectable="0" parent="eP9rrzpeA8IsXEVt9bxe-32">
          <mxGeometry x="0.1894" y="-3" relative="1" as="geometry">
            <mxPoint x="-29" y="-3" as="offset" />
          </mxGeometry>
        </mxCell>
        <mxCell id="eP9rrzpeA8IsXEVt9bxe-24" value="fsm_job&lt;br&gt;状态机对应的JOB" style="rounded=1;whiteSpace=wrap;html=1;shadow=0;" vertex="1" parent="1">
          <mxGeometry x="250" y="780" width="120" height="60" as="geometry" />
        </mxCell>
        <mxCell id="eP9rrzpeA8IsXEVt9bxe-25" value="fsm_job_record&lt;br&gt;JOB执行记录" style="rounded=1;whiteSpace=wrap;html=1;shadow=0;" vertex="1" parent="1">
          <mxGeometry x="430" y="950" width="120" height="60" as="geometry" />
        </mxCell>
        <mxCell id="eP9rrzpeA8IsXEVt9bxe-26" value="fsm_mapping&lt;br&gt;状态机映射" style="rounded=1;whiteSpace=wrap;html=1;shadow=0;" vertex="1" parent="1">
          <mxGeometry x="414" y="670" width="120" height="60" as="geometry" />
        </mxCell>
        <mxCell id="eP9rrzpeA8IsXEVt9bxe-29" style="edgeStyle=orthogonalEdgeStyle;rounded=0;orthogonalLoop=1;jettySize=auto;html=1;exitX=0.5;exitY=0;exitDx=0;exitDy=0;entryX=1;entryY=0.5;entryDx=0;entryDy=0;" edge="1" parent="1" source="eP9rrzpeA8IsXEVt9bxe-27" target="eP9rrzpeA8IsXEVt9bxe-26">
          <mxGeometry relative="1" as="geometry" />
        </mxCell>
        <mxCell id="eP9rrzpeA8IsXEVt9bxe-31" value="映射" style="edgeLabel;html=1;align=center;verticalAlign=middle;resizable=0;points=[];" vertex="1" connectable="0" parent="eP9rrzpeA8IsXEVt9bxe-29">
          <mxGeometry x="-0.1641" y="1" relative="1" as="geometry">
            <mxPoint as="offset" />
          </mxGeometry>
        </mxCell>
        <mxCell id="eP9rrzpeA8IsXEVt9bxe-27" value="handler&lt;br&gt;状态机执行单元" style="rounded=1;whiteSpace=wrap;html=1;shadow=0;" vertex="1" parent="1">
          <mxGeometry x="600" y="780" width="120" height="60" as="geometry" />
        </mxCell>
        <mxCell id="eP9rrzpeA8IsXEVt9bxe-37" style="edgeStyle=orthogonalEdgeStyle;rounded=0;orthogonalLoop=1;jettySize=auto;html=1;exitX=0.5;exitY=1;exitDx=0;exitDy=0;entryX=0.5;entryY=0;entryDx=0;entryDy=0;" edge="1" parent="1" source="eP9rrzpeA8IsXEVt9bxe-35" target="eP9rrzpeA8IsXEVt9bxe-25">
          <mxGeometry relative="1" as="geometry" />
        </mxCell>
        <mxCell id="eP9rrzpeA8IsXEVt9bxe-35" value="记录需要执行的Handler配置&lt;br&gt;如：异步、执行时间间隔等等" style="text;html=1;strokeColor=none;fillColor=none;align=center;verticalAlign=middle;whiteSpace=wrap;rounded=0;shadow=0;" vertex="1" parent="1">
          <mxGeometry x="214" y="850" width="200" height="40" as="geometry" />
        </mxCell>
        <mxCell id="eP9rrzpeA8IsXEVt9bxe-38" style="edgeStyle=orthogonalEdgeStyle;rounded=0;orthogonalLoop=1;jettySize=auto;html=1;exitX=0.5;exitY=1;exitDx=0;exitDy=0;entryX=0.5;entryY=0;entryDx=0;entryDy=0;" edge="1" parent="1" source="eP9rrzpeA8IsXEVt9bxe-36" target="eP9rrzpeA8IsXEVt9bxe-25">
          <mxGeometry relative="1" as="geometry">
            <mxPoint x="480" y="930" as="targetPoint" />
          </mxGeometry>
        </mxCell>
        <mxCell id="eP9rrzpeA8IsXEVt9bxe-36" value="代码中具体的执行逻辑" style="text;html=1;strokeColor=none;fillColor=none;align=center;verticalAlign=middle;whiteSpace=wrap;rounded=0;shadow=0;" vertex="1" parent="1">
          <mxGeometry x="570" y="850" width="200" height="40" as="geometry" />
        </mxCell>
      </root>
    </mxGraphModel>
  </diagram>
</mxfile>
